<?xml version="1.0" encoding="utf-8"?>
<!-- Generator: Adobe Illustrator 22.1.0, SVG Export Plug-In . SVG Version: 6.00 Build 0)  -->
<svg version="1.1" id="Layer_1" xmlns="http://www.w3.org/2000/svg" xmlns:xlink="http://www.w3.org/1999/xlink" x="0px" y="0px"
	 viewBox="0 0 256 256" style="enable-background:new 0 0 256 256;" xml:space="preserve">
<style type="text/css">
	.st0{fill:#231F20;}
	.st1{fill:#FFEFE4;}
	.st2{fill:#69EBFC;}
	.st3{fill:#5FD4E3;}
	.st4{fill:#A1F1FC;}
	.st5{fill:#D476E2;}
	.st6{fill:#B665C2;}
	.st7{fill:#EA82FA;}
	.st8{fill:#FFF7F2;}
	.st9{fill:#FF8354;}
	.st10{fill:#FFA172;}
	.st11{fill:#6770E6;}
	.st12{fill:#5861C7;}
	.st13{fill:#E0734A;}
	.st14{fill:#EDD4C2;}
	.st15{fill:#CC6944;}
	.st16{fill:#858EFF;}
	.st17{fill:#C76642;}
	.st18{fill:#FFFFFF;}
	.st19{fill:#FFDEC7;}
	.st20{fill:#4E56B0;}
	.st21{fill:#94529E;}
	.st22{fill:#41B6C5;}
	.st23{fill:#9847A4;}
	.st24{fill:#C2552C;}
	.st25{fill:#CFB6A4;}
</style>
<g>
	<path class="st1" d="M229.935,256H26.065C11.67,256,0,244.33,0,229.935V26.065C0,11.67,11.67,0,26.065,0h203.87
		C244.33,0,256,11.67,256,26.065v203.87C256,244.33,244.33,256,229.935,256z"/>
	<path class="st14" d="M229.935,249H26.065C11.67,249,0,237.33,0,222.935v7C0,244.33,11.67,256,26.065,256h203.87
		C244.33,256,256,244.33,256,229.935v-7C256,237.33,244.33,249,229.935,249z"/>
	<path class="st2" d="M229.935,0H26.065C11.67,0,0,11.67,0,26.065V40h256V26.065C256,11.67,244.33,0,229.935,0z"/>
	<path class="st4" d="M229.935,0H26.065C11.67,0,0,11.67,0,26.065v7C0,18.67,11.67,7,26.065,7h203.87C244.33,7,256,18.67,256,33.065
		v-7C256,11.67,244.33,0,229.935,0z"/>
	<circle class="st9" cx="35" cy="20" r="9"/>
	<circle class="st5" cx="68.5" cy="20" r="9"/>
	<circle class="st11" cx="102" cy="20" r="9"/>
	<path class="st6" d="M208,121v93.333c0,5.893-4.773,10.667-10.667,10.667H58.667C52.773,225,48,220.227,48,214.333V121l80-56
		L208,121z"/>
	<path class="st2" d="M184,225H72c-5.891,0-10.667-4.776-10.667-10.667V75.667C61.333,69.776,66.109,65,72,65h112
		c5.891,0,10.667,4.776,10.667,10.667v138.667C194.667,220.224,189.891,225,184,225z"/>
	<path class="st5" d="M168,225H58.667C52.773,225,48,220.227,48,214.333V121L168,225z"/>
	<path class="st5" d="M208,121v93.333c0,5.893-4.773,10.667-10.667,10.667H88L208,121z"/>
	<path class="st1" d="M159.333,93H96.667c-2.946,0-5.333-2.388-5.333-5.333v0c0-2.946,2.388-5.333,5.333-5.333h62.667
		c2.946,0,5.333,2.388,5.333,5.333v0C164.667,90.612,162.279,93,159.333,93z"/>
	<path class="st1" d="M169.333,114.333H86.667c-2.946,0-5.333-2.388-5.333-5.333v0c0-2.946,2.388-5.333,5.333-5.333h82.667
		c2.946,0,5.333,2.388,5.333,5.333v0C174.667,111.946,172.279,114.333,169.333,114.333z"/>
	<path class="st1" d="M169.333,135.333H86.667c-2.946,0-5.333-2.388-5.333-5.333l0,0c0-2.946,2.388-5.333,5.333-5.333h82.667
		c2.946,0,5.333,2.388,5.333,5.333l0,0C174.667,132.946,172.279,135.333,169.333,135.333z"/>
	<circle class="st9" cx="208.79" cy="77.062" r="24.768"/>
	<path class="st10" d="M208.79,57.294c12.835,0,23.389,9.763,24.643,22.268c0.082-0.822,0.125-1.656,0.125-2.5
		c0-13.679-11.089-24.768-24.768-24.768c-13.679,0-24.768,11.089-24.768,24.768c0,0.844,0.043,1.678,0.125,2.5
		C185.401,67.057,195.955,57.294,208.79,57.294z"/>
	<path class="st1" d="M223.8,75.928l-12.387-9.729c-0.946-0.743-2.333-0.069-2.333,1.134l0,5.841l-11.963,0
		c-2.147,0-3.888,1.741-3.888,3.888c0,1.074,0.435,2.045,1.139,2.749c0.704,0.704,1.675,1.139,2.749,1.139l11.963,0l0,5.841
		c0,1.203,1.387,1.878,2.333,1.134l12.387-9.729C224.535,77.619,224.535,76.505,223.8,75.928z"/>
</g>
</svg>
